<svg xmlns="http://www.w3.org/2000/svg" width="800" height="400" viewBox="0 0 800 400">
  <defs>
    <linearGradient id="g6" x1="0%" y1="0%" x2="100%" y2="100%">
      <stop offset="0%" style="stop-color:#ea580c"/>
      <stop offset="100%" style="stop-color:#dc2626"/>
    </linearGradient>
  </defs>
  <rect width="800" height="400" fill="url(#g6)"/>
  <circle cx="680" cy="100" r="130" fill="rgba(255,255,255,0.06)"/>
  <circle cx="120" cy="350" r="90" fill="rgba(255,255,255,0.04)"/>
  <!-- Fork and knife -->
  <g transform="translate(340, 70)" stroke="rgba(255,255,255,0.9)" stroke-width="5" fill="none" stroke-linecap="round">
    <!-- Fork -->
    <line x1="20" y1="0" x2="20" y2="50"/>
    <line x1="35" y1="0" x2="35" y2="50"/>
    <line x1="50" y1="0" x2="50" y2="50"/>
    <path d="M15 50 Q15 70 35 70 Q55 70 55 50"/>
    <line x1="35" y1="70" x2="35" y2="140"/>
    <!-- Knife -->
    <path d="M90 0 L90 80 Q90 100 100 100 L100 140"/>
    <path d="M90 0 Q110 40 100 80"/>
  </g>
  <text x="400" y="290" text-anchor="middle" font-family="system-ui,sans-serif" font-size="36" font-weight="700" fill="rgba(255,255,255,0.95)">Yemek &amp; Icecek</text>
</svg>
